<?xml version="1.0" encoding="UTF-8" standalone="no"?>
<svg
   xmlns:dc="http://purl.org/dc/elements/1.1/"
   xmlns:cc="http://creativecommons.org/ns#"
   xmlns:rdf="http://www.w3.org/1999/02/22-rdf-syntax-ns#"
   xmlns:svg="http://www.w3.org/2000/svg"
   xmlns="http://www.w3.org/2000/svg"
   xmlns:sodipodi="http://sodipodi.sourceforge.net/DTD/sodipodi-0.dtd"
   xmlns:inkscape="http://www.inkscape.org/namespaces/inkscape"
   id="Layer_3"
   enable-background="new 0 0 64 64"
   height="474.664"
   viewBox="0 0 40 59.333"
   width="320"
   version="1.1"
   sodipodi:docname="barley_grain-lightest.svg"
   inkscape:version="0.92.5 (2060ec1f9f, 2020-04-08)">
  <metadata
     id="metadata149">
    <rdf:RDF>
      <cc:Work
         rdf:about="">
        <dc:format>image/svg+xml</dc:format>
        <dc:type
           rdf:resource="http://purl.org/dc/dcmitype/StillImage" />
        <dc:title></dc:title>
      </cc:Work>
    </rdf:RDF>
  </metadata>
  <defs
     id="defs147" />
  <sodipodi:namedview
     pagecolor="#ffffff"
     bordercolor="#666666"
     borderopacity="1"
     objecttolerance="10"
     gridtolerance="10"
     guidetolerance="10"
     inkscape:pageopacity="0"
     inkscape:pageshadow="2"
     inkscape:window-width="1920"
     inkscape:window-height="1016"
     id="namedview145"
     showgrid="false"
     fit-margin-top="0"
     fit-margin-left="0"
     fit-margin-right="0"
     fit-margin-bottom="0"
     inkscape:zoom="1.6601562"
     inkscape:cx="160"
     inkscape:cy="248"
     inkscape:window-x="0"
     inkscape:window-y="27"
     inkscape:window-maximized="1"
     inkscape:current-layer="Layer_3" />
  <g
     id="g142"
     transform="translate(-12,-3.667)">
    <path
       d="M 33,61 V 48 H 31 V 61 H 12 v 2 h 40 v -2 z"
       id="path122"
       inkscape:connector-curvature="0"
       style="fill:#d78f25" />
    <path
       d="m 42,28.822 -2.164,1.377 c -10e-4,10e-4 -0.003,0.002 -0.004,0.003 l -3.594,2.287 C 34.21,33.781 33,35.987 33,38.392 v 0.787 l 2.164,-1.377 c 10e-4,-10e-4 0.003,-0.002 0.004,-0.003 l 3.594,-2.287 C 40.79,34.219 42,32.013 42,29.608 Z"
       id="path124"
       inkscape:connector-curvature="0"
       style="fill:#d78f25" />
    <path
       d="m 33,25.178 2.164,-1.377 c 10e-4,-10e-4 0.003,-0.002 0.004,-0.003 l 3.594,-2.287 C 40.79,20.219 42,18.013 42,15.608 v -0.787 l -5.758,3.664 C 34.212,19.777 33,21.985 33,24.391 Z"
       id="path126"
       inkscape:connector-curvature="0"
       style="fill:#d78f25" />
    <path
       d="m 42,21.822 -2.164,1.377 c -10e-4,10e-4 -0.003,0.002 -0.004,0.003 l -3.594,2.287 C 34.21,26.781 33,28.987 33,31.392 v 0.787 l 2.164,-1.377 c 10e-4,-0.001 0.003,-0.002 0.004,-0.003 l 3.594,-2.287 C 40.79,27.219 42,25.013 42,22.608 Z"
       id="path128"
       inkscape:connector-curvature="0"
       style="fill:#d78f25" />
    <path
       d="m 39.832,37.202 -3.594,2.287 C 34.21,40.781 33,42.987 33,45.392 v 0.787 l 5.758,-3.664 C 40.788,41.223 42,39.015 42,36.609 v -0.787 l -2.164,1.377 c -10e-4,0.001 -0.003,0.002 -0.004,0.003 z"
       id="path130"
       inkscape:connector-curvature="0"
       style="fill:#d78f25" />
    <path
       d="m 25.242,35.514 3.59,2.285 c 10e-4,10e-4 0.002,10e-4 0.003,0.002 L 31,39.178 v -0.787 c 0,-2.406 -1.212,-4.613 -3.242,-5.905 l -3.59,-2.285 C 24.167,30.2 24.166,30.2 24.165,30.199 L 22,28.822 v 0.787 c 0,2.405 1.212,4.613 3.242,5.905 z"
       id="path132"
       inkscape:connector-curvature="0"
       style="fill:#d78f25" />
    <path
       d="m 25.242,28.514 3.59,2.285 c 10e-4,0.001 0.002,0.001 0.003,0.002 L 31,32.178 v -0.787 c 0,-2.406 -1.212,-4.613 -3.242,-5.905 l -3.59,-2.285 C 24.167,23.2 24.166,23.2 24.165,23.199 L 22,21.822 v 0.787 c 0,2.405 1.212,4.613 3.242,5.905 z"
       id="path134"
       inkscape:connector-curvature="0"
       style="fill:#d78f25" />
    <path
       d="M 25.242,42.514 31,46.178 v -0.787 c 0,-2.406 -1.212,-4.613 -3.242,-5.905 l -3.59,-2.285 C 24.167,37.2 24.166,37.2 24.165,37.199 L 22,35.822 v 0.787 c 0,2.405 1.212,4.613 3.242,5.905 z"
       id="path136"
       inkscape:connector-curvature="0"
       style="fill:#d78f25" />
    <path
       d="m 25.242,21.514 3.59,2.285 c 10e-4,0.001 0.002,0.001 0.003,0.002 L 31,25.178 v -0.787 c 0,-2.406 -1.212,-4.614 -3.242,-5.906 L 22,14.822 v 0.787 c 0,2.405 1.212,4.613 3.242,5.905 z"
       id="path138"
       inkscape:connector-curvature="0"
       style="fill:#d78f25" />
    <path
       d="M 32,15.333 32.1,15.2 C 33.326,13.567 34,11.542 34,9.5 34,7.458 33.325,5.434 32.1,3.8 L 32,3.667 31.9,3.8 C 30.675,5.434 30,7.458 30,9.5 c 0,2.042 0.675,4.066 1.9,5.7 z"
       id="path140"
       inkscape:connector-curvature="0"
       style="fill:#d78f25" />
  </g>
</svg>
