<?xml version="1.0" encoding="UTF-8" standalone="no"?>
<svg preserveAspectRatio="xMidYMid meet" fill={this.props.fill} height={this.props.height} viewBox="0 0 26 31.950001">
  <g transform="translate(-4.5,-1.55)">
    <path d="m 30.5,25.4 v -8.8 c 0,-1.7 -1.4,-3.1 -3.1,-3.1 h -2.9 v -2.8 c 0,-0.1 -0.1,-0.2 -0.2,-0.2 H 4.7 c -0.1,0 -0.2,0.1 -0.2,0.2 v 20.1 c 0,1.5 1.2,2.7 2.7,2.7 h 14.7 c 1.5,0 2.7,-1.2 2.7,-2.7 v -2.3 h 2.9 c 1.6,0 3,-1.4 3,-3.1 z m -20,3.2 c 0,0.5 -0.5,0.9 -1,0.9 -0.5,0 -1,-0.4 -1,-0.9 V 16.4 c 0,-0.5 0.5,-0.9 1,-0.9 0.5,0 1,0.4 1,0.9 z m 5,0 c 0,0.5 -0.5,0.9 -1,0.9 -0.5,0 -1,-0.4 -1,-0.9 V 16.4 c 0,-0.5 0.5,-0.9 1,-0.9 0.5,0 1,0.4 1,0.9 z m 5,0 c 0,0.5 -0.5,0.9 -1,0.9 -0.5,0 -1,-0.4 -1,-0.9 V 16.4 c 0,-0.5 0.5,-0.9 1,-0.9 0.5,0 1,0.4 1,0.9 z m 8,-3.2 c 0,0.6 -0.5,1.1 -1.1,1.1 h -2.9 v -11 h 2.9 c 0.6,0 1.1,0.5 1.1,1.1 z" />
    <path d="M 4.5,6 C 4.5,7.4 5.6,8.5 7,8.5 H 22 C 23.4,8.5 24.5,7.4 24.5,6 24.5,3.8 21.9,2.7 20.4,4.2 19.9,2.7 18.1,2.1 16.8,2.9 15.9,1.1 13.3,1.1 12.4,2.9 11,2.1 9.2,2.6 8.6,4.2 7,2.8 4.5,3.9 4.5,6 Z" />
  </g>
</svg>
