<?xml version="1.0" encoding="UTF-8" standalone="no"?>
<svg
   xmlns:dc="http://purl.org/dc/elements/1.1/"
   xmlns:cc="http://creativecommons.org/ns#"
   xmlns:rdf="http://www.w3.org/1999/02/22-rdf-syntax-ns#"
   xmlns:svg="http://www.w3.org/2000/svg"
   xmlns="http://www.w3.org/2000/svg"
   xmlns:xlink="http://www.w3.org/1999/xlink"
   xmlns:sodipodi="http://sodipodi.sourceforge.net/DTD/sodipodi-0.dtd"
   xmlns:inkscape="http://www.inkscape.org/namespaces/inkscape"
   version="1.1"
   height="288"
   width="288"
   id="svg3917"
   sodipodi:docname="FoamFactory-Logo.svg"
   inkscape:version="0.92.4 (5da689c313, 2019-01-14)">
  <metadata
     id="metadata3921">
    <rdf:RDF>
      <cc:Work
         rdf:about="">
        <dc:format>image/svg+xml</dc:format>
        <dc:type
           rdf:resource="http://purl.org/dc/dcmitype/StillImage" />
        <dc:title></dc:title>
      </cc:Work>
    </rdf:RDF>
  </metadata>
  <sodipodi:namedview
     pagecolor="#ffffff"
     bordercolor="#666666"
     borderopacity="1"
     objecttolerance="10"
     gridtolerance="10"
     guidetolerance="10"
     inkscape:pageopacity="0"
     inkscape:pageshadow="2"
     inkscape:window-width="1850"
     inkscape:window-height="1016"
     id="namedview3919"
     showgrid="false"
     fit-margin-top="0"
     fit-margin-left="0"
     fit-margin-right="0"
     fit-margin-bottom="0"
     inkscape:zoom="2.9857143"
     inkscape:cx="64.987145"
     inkscape:cy="142.48421"
     inkscape:window-x="70"
     inkscape:window-y="27"
     inkscape:window-maximized="1"
     inkscape:current-layer="svg3917" />
  <defs
     id="defs3877">
    <circle
       id="ellipse-1"
       cx="125"
       cy="125"
       r="120"
       style="opacity:1" />
    <path
       id="path-3"
       d="M 235.93758,79.203011 C 217.92491,35.664787 175.01527,5 125,5 68.913199,5 21.761896,43.561691 8.6350698,95.596085 21.792963,87.679977 32.87857,83.115013 42.232024,86.228989 69.60646,95.342545 81.649489,92.857651 95.225997,90.056351 99.929664,89.085823 104.81739,88.077316 110.59053,87.5 c 17.56992,-1.756996 26.13751,-0.936905 34.95911,-0.09251 8.75137,0.837677 17.75267,1.699279 36.04089,0.09251 36.72322,-3.22644 27.00001,-8.5 48.00001,-8.5 1.93406,0 4.06745,0.0721 6.34704,0.203011 z"
       inkscape:connector-curvature="0"
       style="opacity:1;fill-rule:evenodd" />
    <path
       id="path-4"
       d="M 235.93758,79.203011 C 241.77713,93.317741 245,108.78547 245,125 245,191.2298 191.2298,245 125,245 58.770199,245 5,191.2298 5,125 5,114.857 6.2611532,105.00623 8.6350698,95.596085 21.792963,87.679977 32.878571,83.115013 42.232025,86.228989 c 27.374451,9.113563 39.417481,6.628662 52.993973,3.827362 4.703667,-0.970528 9.591392,-1.979035 15.364532,-2.556351 17.56993,-1.756996 26.13753,-0.936905 34.95911,-0.09251 8.75135,0.837677 17.75265,1.699279 36.04089,0.09251 36.72322,-3.22644 27.00002,-8.5 48.00002,-8.5 1.93405,0 4.06744,0.0721 6.34703,0.203011 z"
       inkscape:connector-curvature="0"
       style="opacity:1;fill-rule:evenodd" />
    <linearGradient
       id="linearGradient-5"
       x1="103.95812"
       y1="94.990173"
       x2="103.95812"
       y2="294.58978"
       gradientTransform="scale(1.2024072,0.831665)"
       gradientUnits="userSpaceOnUse">
      <stop
         offset="0"
         stop-color="rgb(255,236,153)"
         stop-opacity="1"
         id="stop3847" />
      <stop
         offset="1"
         stop-color="rgb(242,139,0)"
         stop-opacity="1"
         id="stop3849" />
    </linearGradient>
    <path
       id="path-7"
       d="m 149,157 h -47 l 9.4,68 h 28.20001 L 149,157 l -4.5,5 h -39 l 7.8,56 h 23.4 l 7.8,-56 z"
       inkscape:connector-curvature="0"
       style="opacity:1;fill-rule:evenodd" />
    <path
       id="path-9"
       d="m 110.61562,126.37724 c 1.33657,-3.56979 5.12786,-6.14691 9.59108,-6.14691 5.40525,0 9.82499,3.77982 10.09256,8.52509 3.96554,0.40181 6.87583,1.44914 7.20072,2.70211 6.9412,0.0318 12.54169,1.63511 12.54169,3.60535 0,0.34747 -0.17419,0.68353 -0.4992,1.00157 0.3236,0.32852 0.49919,0.68068 0.49919,1.04691 0,1.70807 -3.81954,3.10989 -8.66176,3.23894 h -0.0525 c -0.22107,0.005 -0.44425,0.008 -0.66927,0.008 -0.22502,0 -0.4482,-0.003 -0.66926,-0.008 h -25.82736 c -0.97635,0.15596 -2.01736,0.24022 -3.09773,0.24022 -5.57732,0 -10.10539,-2.24535 -10.10539,-5.01099 0,-1.48944 1.3133,-2.82797 3.39653,-3.74616 -0.0186,-0.1445 -0.0281,-0.29072 -0.0281,-0.43841 0,-1.16002 0.58519,-2.23017 1.5704,-3.08769 0.519,-0.45175 1.149,-0.84449 1.86295,-1.16028 0.84843,-0.37528 1.81539,-0.64189 2.85547,-0.76975 z"
       inkscape:connector-curvature="0"
       style="opacity:1;fill-rule:evenodd" />
    <path
       id="path-11"
       d="M 106.54166,74.479309 V 15 h 37.91667 v 61.858482 h -0.0876 c -0.75901,10.098961 -6.37131,16.458001 -13.81514,18.400017 v 10.877361 h -0.0234 c -0.0557,0.91764 -0.2096,1.7417 -0.44475,2.46753 H 171 l -17.0625,22.88074 5.6875,-16.76332 H 91.375 L 97.0625,131.48413 80,108.60339 h 40.91255 c -0.23515,-0.72583 -0.38901,-1.54989 -0.44474,-2.46753 h -0.0234 V 95.258499 C 113.0006,93.316483 107.3883,86.957443 106.6293,76.858482 h -0.0876 z"
       inkscape:connector-curvature="0"
       style="opacity:1;fill-rule:evenodd" />
    <filter
       style="color-interpolation-filters:sRGB"
       inkscape:label="Drop Shadow"
       id="filter3964">
      <feFlood
         flood-opacity="1"
         flood-color="rgb(0,0,0)"
         result="flood"
         id="feFlood3954" />
      <feComposite
         in="flood"
         in2="SourceGraphic"
         operator="in"
         result="composite1"
         id="feComposite3956" />
      <feGaussianBlur
         in="composite1"
         stdDeviation="5"
         result="blur"
         id="feGaussianBlur3958" />
      <feOffset
         dx="0"
         dy="0"
         result="offset"
         id="feOffset3960" />
      <feComposite
         in="SourceGraphic"
         in2="offset"
         operator="over"
         result="composite2"
         id="feComposite3962" />
    </filter>
    <filter
       style="color-interpolation-filters:sRGB"
       inkscape:label="Drop Shadow"
       id="filter4300">
      <feFlood
         flood-opacity="1"
         flood-color="rgb(0,0,0)"
         result="flood"
         id="feFlood4290" />
      <feComposite
         in="flood"
         in2="SourceGraphic"
         operator="in"
         result="composite1"
         id="feComposite4292" />
      <feGaussianBlur
         in="composite1"
         stdDeviation="0.8"
         result="blur"
         id="feGaussianBlur4294" />
      <feOffset
         dx="0"
         dy="0"
         result="offset"
         id="feOffset4296" />
      <feComposite
         in="SourceGraphic"
         in2="offset"
         operator="over"
         result="composite2"
         id="feComposite4298" />
    </filter>
    <filter
       style="color-interpolation-filters:sRGB"
       inkscape:label="Drop Shadow"
       id="filter4312">
      <feFlood
         flood-opacity="1"
         flood-color="rgb(0,0,0)"
         result="flood"
         id="feFlood4302" />
      <feComposite
         in="flood"
         in2="SourceGraphic"
         operator="in"
         result="composite1"
         id="feComposite4304" />
      <feGaussianBlur
         in="composite1"
         stdDeviation="0.8"
         result="blur"
         id="feGaussianBlur4306" />
      <feOffset
         dx="0"
         dy="0"
         result="offset"
         id="feOffset4308" />
      <feComposite
         in="SourceGraphic"
         in2="offset"
         operator="over"
         result="composite2"
         id="feComposite4310" />
    </filter>
    <filter
       style="color-interpolation-filters:sRGB"
       inkscape:label="Drop Shadow"
       id="filter4324">
      <feFlood
         flood-opacity="1"
         flood-color="rgb(0,0,0)"
         result="flood"
         id="feFlood4314" />
      <feComposite
         in="flood"
         in2="SourceGraphic"
         operator="in"
         result="composite1"
         id="feComposite4316" />
      <feGaussianBlur
         in="composite1"
         stdDeviation="0.8"
         result="blur"
         id="feGaussianBlur4318" />
      <feOffset
         dx="0"
         dy="0"
         result="offset"
         id="feOffset4320" />
      <feComposite
         in="SourceGraphic"
         in2="offset"
         operator="over"
         result="composite2"
         id="feComposite4322" />
    </filter>
  </defs>
  <g
     id="Logo"
     transform="translate(19,19)"
     inkscape:label="#logo">
    <g
       id="logo-group"
       style="opacity:1">
      <use
         xlink:href="#ellipse-1"
         id="logo-shadow"
         style="display:none;fill:#000000;stroke:#000000;stroke-width:0;stroke-opacity:0;filter:url(#filter-2)"
         x="0"
         y="0"
         width="100%"
         height="100%" />
      <use
         xlink:href="#ellipse-1"
         id="logo"
         style="fill:#ffffff;fill-opacity:1;filter:url(#filter3964)"
         x="0"
         y="0"
         width="100%"
         height="100%" />
    </g>
    <g
       id="foam-top-bg">
      <use
         xlink:href="#path-3"
         id="use3885"
         style="fill:#ffffff;fill-opacity:1"
         x="0"
         y="0"
         width="100%"
         height="100%" />
    </g>
    <g
       id="beer-bg">
      <use
         xlink:href="#path-4"
         id="use3889"
         style="fill:url(#linearGradient-5);fill-opacity:1"
         x="0"
         y="0"
         width="100%"
         height="100%" />
    </g>
    <g
       id="glass-group"
       style="filter:url(#filter4312)">
      <use
         xlink:href="#path-7"
         id="glass"
         style="fill:#777777;fill-opacity:1"
         x="0"
         y="0"
         width="100%"
         height="100%" />
    </g>
    <g
       id="foam-group"
       style="filter:url(#filter4324)">
      <use
         xlink:href="#path-9"
         id="foam"
         style="fill:#ffffff;fill-opacity:1"
         x="0"
         y="0"
         width="100%"
         height="100%" />
      <use
         xlink:href="#path-9"
         id="use3905"
         style="fill-opacity:0;stroke:#777777;stroke-width:3;stroke-linecap:butt;stroke-linejoin:miter;stroke-opacity:1"
         x="0"
         y="0"
         width="100%"
         height="100%" />
    </g>
    <g
       id="crane-group"
       style="filter:url(#filter4300)">
      <use
         xlink:href="#path-11"
         id="crane"
         style="fill:#777777;fill-opacity:1"
         x="0"
         y="0"
         width="100%"
         height="100%" />
    </g>
  </g>
</svg>
